<svg width="80" height="80" viewBox="0 0 128 128" fill="none" xmlns="http://www.w3.org/2000/svg"><path d="M126.9 26.942C127.199 27.6635 127.278 28.4577 127.126 29.2241C126.974 29.9905 126.598 30.6946 126.046 31.2475L110.246 47.0475C109.879 47.414 109.443 47.7046 108.963 47.9025C108.483 48.1004 107.969 48.2018 107.45 48.2009H85.3851L74.6964 58.8895C75.9013 61.412 76.1756 64.2792 75.4709 66.9843C74.7662 69.6894 73.1279 72.0584 70.8455 73.6723C68.5631 75.2863 65.7835 76.0415 62.9982 75.8043C60.2129 75.5671 57.601 74.3529 55.6244 72.3763C53.6477 70.3996 52.4335 67.7878 52.1963 65.0024C51.9592 62.2171 52.7143 59.4376 54.3283 57.1552C55.9423 54.8728 58.3112 53.2344 61.0164 52.5298C63.7215 51.8251 66.5887 52.0994 69.1111 53.3043L79.7998 42.6156V20.5509C79.7989 20.0318 79.9003 19.5176 80.0982 19.0378C80.2961 18.5579 80.5866 18.1218 80.9532 17.7543L96.7532 1.95425C97.3056 1.40041 98.0101 1.02307 98.7773 0.870071C99.5444 0.717073 100.34 0.795308 101.062 1.09486C101.785 1.3944 102.402 1.90178 102.836 2.55265C103.27 3.20353 103.501 3.96859 103.5 4.75085V24.5009H123.25C124.031 24.501 124.795 24.733 125.445 25.1675C126.095 25.6021 126.601 26.2196 126.9 26.942ZM113.715 32.4009H99.5498C98.5022 32.4009 97.4975 31.9847 96.7567 31.2439C96.016 30.5032 95.5998 29.4985 95.5998 28.4509V14.2862L87.6998 22.1861V40.3009H105.815L113.715 32.4009ZM124.095 44.3694C126.11 50.5471 127.2 57.1516 127.2 64.0009C127.197 77.3514 122.966 90.358 115.115 101.156C107.263 111.953 96.194 119.987 83.4945 124.105C70.795 128.223 57.1175 128.214 44.4236 124.079C31.7297 119.944 20.6714 111.895 12.8345 101.086C4.99758 90.2781 0.784646 77.2656 0.799846 63.9152C0.815046 50.5647 5.0576 37.5619 12.9191 26.7715C20.7806 15.9811 31.8572 7.95737 44.5605 3.85097C57.2638 -0.25542 70.9412 -0.233549 83.6313 3.91345L77.2481 10.2967C65.5213 7.4052 53.1703 8.43252 42.0823 13.2216C30.9943 18.0107 21.7791 26.2982 15.8447 36.8179C9.91038 47.3375 7.58323 59.5107 9.21887 71.4775C10.8545 83.4443 16.363 94.5465 24.9026 103.088C33.4423 111.629 44.5434 117.14 56.5099 118.778C68.4763 120.416 80.65 118.091 91.1708 112.159C101.692 106.226 109.981 97.0128 114.772 85.9257C119.563 74.8387 120.593 62.4879 117.704 50.7605L124.095 44.3694ZM102.71 56.1009C104.406 64.4201 103.377 73.0646 99.7751 80.753C96.1728 88.4414 90.1891 94.7645 82.7108 98.7849C75.2326 102.805 66.658 104.309 58.2579 103.074C49.8578 101.838 42.0794 97.9285 36.0758 91.9249C30.0721 85.9212 26.1627 78.1428 24.927 69.7428C23.6914 61.3427 25.1953 52.768 29.2157 45.2898C33.2362 37.8116 39.5593 31.8279 47.2477 28.2256C54.9361 24.6233 63.5806 23.5942 71.8998 25.2909V33.3963C65.1885 31.6649 58.0942 32.1881 51.7094 34.8852C45.3247 37.5823 40.0039 42.3037 36.5664 48.3223C33.1289 54.3408 31.7655 61.3226 32.6862 68.1921C33.6069 75.0617 36.7606 81.4381 41.6616 86.339C46.5626 91.24 52.9389 94.3937 59.8085 95.3144C66.6781 96.2351 73.6599 94.8717 79.6784 91.4343C85.6969 87.9968 90.4184 82.6759 93.1155 76.2912C95.8126 69.9065 96.3358 62.8121 94.6044 56.1009H102.71Z" fill="#357D8A"></path></svg>