<svg width="80" height="80" viewBox="0 0 158 104" fill="none" xmlns="http://www.w3.org/2000/svg"><path d="M79.0003 103.041C25.6403 103.041 1.51233 56.1769 0.584328 53.8569C0.120328 52.4649 0.120328 51.0729 0.584328 49.6809C1.51233 47.8249 25.6403 0.960938 79.0003 0.960938C132.36 0.960938 156.488 47.8249 157.416 50.1449C157.88 51.5369 157.88 52.9289 157.416 54.3209C156.488 56.1769 132.36 103.041 79.0003 103.041ZM9.86433 52.0009C14.9683 60.8169 37.2403 93.7609 79.0003 93.7609C120.76 93.7609 142.568 60.8169 148.136 52.0009C143.032 43.1849 120.76 10.2409 79.0003 10.2409C37.2403 10.2409 15.4323 43.1849 9.86433 52.0009Z" fill="#357D8A"></path><path d="M79.0002 93.76C55.8002 93.76 37.2402 75.2 37.2402 52C37.2402 28.8 55.8002 10.24 79.0002 10.24C102.2 10.24 120.76 28.8 120.76 52C120.76 75.2 102.2 93.76 79.0002 93.76ZM79.0002 19.52C60.9042 19.52 46.5202 33.904 46.5202 52C46.5202 70.096 60.9042 84.48 79.0002 84.48C97.0962 84.48 111.48 70.096 111.48 52C111.48 33.904 97.0962 19.52 79.0002 19.52Z" fill="#357D8A"></path><path d="M78.9998 75.2008C66.0078 75.2008 55.7998 64.9928 55.7998 52.0008C55.7998 49.2168 57.6558 47.3608 60.4398 47.3608C63.2238 47.3608 65.0798 49.2168 65.0798 52.0008C65.0798 59.8888 71.1118 65.9208 78.9998 65.9208C86.8878 65.9208 92.9198 59.8888 92.9198 52.0008C92.9198 44.1128 86.8878 38.0808 78.9998 38.0808C76.2158 38.0808 74.3598 36.2248 74.3598 33.4408C74.3598 30.6568 76.2158 28.8008 78.9998 28.8008C91.9918 28.8008 102.2 39.0088 102.2 52.0008C102.2 64.9928 91.9918 75.2008 78.9998 75.2008Z" fill="#357D8A"></path></svg>